<svg xmlns="http://www.w3.org/2000/svg" viewBox="0 0 800 500" width="800" height="500">
  <defs>
    <linearGradient id="sidebar-meeting-management.svg" x1="0" y1="0" x2="0" y2="1">
      <stop offset="0%" stop-color="#1E293B"/>
      <stop offset="100%" stop-color="#0F172A"/>
    </linearGradient>
  </defs>
  
  <!-- Background -->
  <rect width="800" height="500" fill="#F8FAFC" rx="12"/>
  
  <!-- Sidebar -->
  <rect width="180" height="500" fill="url(#sidebar-meeting-management.svg)" rx="12"/>
  <rect x="168" width="12" height="500" fill="url(#sidebar-meeting-management.svg)"/>
  
  <!-- Logo area -->
  <rect x="16" y="20" width="36" height="36" rx="8" fill="#8B5CF6"/>
  <text x="62" y="44" font-family="system-ui,sans-serif" font-size="14" font-weight="700" fill="white">Meeting</text>
  <text x="62" y="60" font-family="system-ui,sans-serif" font-size="10" fill="#94A3B8">Management</text>
  
  <!-- Sidebar divider -->
  <line x1="16" y1="90" x2="164" y2="90" stroke="#334155" stroke-width="1"/>
  <text x="16" y="118" font-family="system-ui,sans-serif" font-size="10" fill="#64748B" letter-spacing="1">MENU</text>
  
  
    <rect x="0" y="132" width="180" height="36" rx="0" fill="#8B5CF6" opacity="0.1"/>
    <rect x="0" y="132" width="3" height="36" fill="#8B5CF6"/>
    <text x="44" y="153" font-family="system-ui,sans-serif" font-size="13" font-weight="600" fill="#8B5CF6">Agendas</text>
    <rect x="16" y="140" width="16" height="16" rx="3" fill="#8B5CF6" opacity="0.2"/>
    
    <text x="44" y="197" font-family="system-ui,sans-serif" font-size="13" font-weight="400" fill="#6B7280">Minutes</text>
    <rect x="16" y="184" width="16" height="16" rx="3" fill="#D1D5DB" opacity="0.4"/>
    
    <text x="44" y="241" font-family="system-ui,sans-serif" font-size="13" font-weight="400" fill="#6B7280">Proposals</text>
    <rect x="16" y="228" width="16" height="16" rx="3" fill="#D1D5DB" opacity="0.4"/>
    
    <text x="44" y="285" font-family="system-ui,sans-serif" font-size="13" font-weight="400" fill="#6B7280">Reports</text>
    <rect x="16" y="272" width="16" height="16" rx="3" fill="#D1D5DB" opacity="0.4"/>
  
  <!-- Top bar -->
  <rect x="180" y="0" width="620" height="56" fill="white" rx="0"/>
  <rect x="180" y="55" width="620" height="1" fill="#E5E7EB"/>
  <text x="204" y="34" font-family="system-ui,sans-serif" font-size="16" font-weight="600" fill="#1F2937">Meeting Management</text>
  
  <!-- Search bar -->
  <rect x="580" y="16" width="180" height="28" rx="6" fill="#F1F5F9" stroke="#E2E8F0" stroke-width="1"/>
  <text x="594" y="34" font-family="system-ui,sans-serif" font-size="11" fill="#94A3B8">Search...</text>
  
  <!-- Avatar -->
  <circle cx="770" cy="28" r="14" fill="#8B5CF6" opacity="0.2"/>
  <circle cx="770" cy="24" r="5" fill="#8B5CF6" opacity="0.5"/>
  <ellipse cx="770" cy="34" rx="8" ry="5" fill="#8B5CF6" opacity="0.3"/>
  
  <!-- Stat cards -->
  
    <rect x="220" y="80" width="170" height="80" rx="10" fill="white" stroke="#E5E7EB" stroke-width="1"/>
    <text x="236" y="108" font-family="system-ui,sans-serif" font-size="11" fill="#9CA3AF" letter-spacing="0.5">MEETINGS</text>
    <text x="236" y="140" font-family="system-ui,sans-serif" font-size="26" font-weight="700" fill="#1F2937">1,245</text>
    <rect x="410" y="80" width="170" height="80" rx="10" fill="white" stroke="#E5E7EB" stroke-width="1"/>
    <text x="426" y="108" font-family="system-ui,sans-serif" font-size="11" fill="#9CA3AF" letter-spacing="0.5">AGENDA ITEMS</text>
    <text x="426" y="140" font-family="system-ui,sans-serif" font-size="26" font-weight="700" fill="#1F2937">5,680</text>
    <rect x="600" y="80" width="170" height="80" rx="10" fill="white" stroke="#E5E7EB" stroke-width="1"/>
    <text x="616" y="108" font-family="system-ui,sans-serif" font-size="11" fill="#9CA3AF" letter-spacing="0.5">DOCUMENTS</text>
    <text x="616" y="140" font-family="system-ui,sans-serif" font-size="26" font-weight="700" fill="#1F2937">3,420</text>
  
  <!-- Chart section label -->
  <text x="220" y="200" font-family="system-ui,sans-serif" font-size="14" font-weight="600" fill="#1F2937">Overview</text>
  <text x="220" y="218" font-family="system-ui,sans-serif" font-size="11" fill="#9CA3AF">Monthly performance</text>
  
  <!-- Chart baseline -->
  <line x1="220" y1="400" x2="748" y2="400" stroke="#E5E7EB" stroke-width="1"/>
  
  <!-- Bars -->
  <rect x="220" y="322" width="36" height="78" rx="4" fill="#8B5CF6" opacity="0.7549999999999999" />
    <rect x="264" y="298" width="36" height="102" rx="4" fill="#8B5CF6" opacity="0.895" />
    <rect x="308" y="346" width="36" height="54" rx="4" fill="#8B5CF6" opacity="0.615" />
    <rect x="352" y="286" width="36" height="114" rx="4" fill="#8B5CF6" opacity="0.9649999999999999" />
    <rect x="396" y="316" width="36" height="84" rx="4" fill="#8B5CF6" opacity="0.7899999999999999" />
    <rect x="440" y="334" width="36" height="66" rx="4" fill="#8B5CF6" opacity="0.685" />
    <rect x="484" y="304" width="36" height="96" rx="4" fill="#8B5CF6" opacity="0.8599999999999999" />
    <rect x="528" y="328" width="36" height="72" rx="4" fill="#8B5CF6" opacity="0.72" />
    <rect x="572" y="292" width="36" height="108" rx="4" fill="#8B5CF6" opacity="0.9299999999999999" />
    <rect x="616" y="340" width="36" height="60" rx="4" fill="#8B5CF6" opacity="0.6499999999999999" />
    <rect x="660" y="310" width="36" height="90" rx="4" fill="#8B5CF6" opacity="0.825" />
    <rect x="704" y="294.4" width="36" height="105.6" rx="4" fill="#8B5CF6" opacity="0.9159999999999999" />
  
  <!-- Table section -->
  <text x="220" y="420" font-family="system-ui,sans-serif" font-size="13" font-weight="600" fill="#1F2937">Recent Activity</text>
  
    <rect x="220" y="430" width="540" height="28" rx="4" fill="#F9FAFB"/>
    <rect x="236" y="438" width="80" height="12" rx="3" fill="#E5E7EB"/>
    <rect x="380" y="438" width="60" height="12" rx="3" fill="#E5E7EB"/>
    <rect x="530" y="438" width="100" height="12" rx="3" fill="#E5E7EB"/>
    <rect x="700" y="438" width="40" height="12" rx="6" fill="#8B5CF6" opacity="0.15"/>
    <rect x="220" y="462" width="540" height="28" rx="4" fill="white"/>
    <rect x="236" y="470" width="80" height="12" rx="3" fill="#E5E7EB"/>
    <rect x="380" y="470" width="60" height="12" rx="3" fill="#E5E7EB"/>
    <rect x="530" y="470" width="100" height="12" rx="3" fill="#E5E7EB"/>
    <rect x="700" y="470" width="40" height="12" rx="6" fill="#8B5CF6" opacity="0.15"/>
    <rect x="220" y="494" width="540" height="28" rx="4" fill="#F9FAFB"/>
    <rect x="236" y="502" width="80" height="12" rx="3" fill="#E5E7EB"/>
    <rect x="380" y="502" width="60" height="12" rx="3" fill="#E5E7EB"/>
    <rect x="530" y="502" width="100" height="12" rx="3" fill="#E5E7EB"/>
    <rect x="700" y="502" width="40" height="12" rx="6" fill="#8B5CF6" opacity="0.15"/>
</svg>